<?xml version="1.0" standalone="no"?>
<!DOCTYPE svg PUBLIC "-//W3C//DTD SVG 20010904//EN"
 "http://www.w3.org/TR/2001/REC-SVG-20010904/DTD/svg10.dtd">
<svg version="1.0" xmlns="http://www.w3.org/2000/svg"
 width="32.000000pt" height="32.000000pt" viewBox="0 0 32.000000 32.000000"
 preserveAspectRatio="xMidYMid meet">

<g transform="translate(0.000000,32.000000) scale(0.100000,-0.100000)"
fill="#000000" stroke="none">
<path d="M78 238 c-15 -15 -15 -18 -3 -18 8 0 15 -5 15 -10 0 -6 6 -5 14 2 8
7 10 15 6 18 -4 3 -9 10 -11 15 -2 6 -11 3 -21 -7z"/>
<path d="M213 223 c9 -2 25 -2 35 0 9 3 1 5 -18 5 -19 0 -27 -2 -17 -5z"/>
<path d="M71 104 c6 -7 7 -19 3 -25 -4 -8 -3 -9 5 -5 6 4 18 3 25 -3 10 -9 13
-5 12 16 -1 23 -6 28 -29 29 -21 1 -25 -2 -16 -12z"/>
<path d="M213 103 c9 -2 25 -2 35 0 9 3 1 5 -18 5 -19 0 -27 -2 -17 -5z"/>
<path d="M200 80 c0 -5 14 -10 30 -10 17 0 30 5 30 10 0 6 -13 10 -30 10 -16
0 -30 -4 -30 -10z"/>
</g>
</svg>
